<svg width="48" height="48" viewBox="0 0 48 48" fill="none" xmlns="http://www.w3.org/2000/svg">
<path fill-rule="evenodd" clip-rule="evenodd" d="M24.0009 4C16.8243 4 11.6163 4.99435 8.30562 8.30465C4.99485 11.615 4 16.8228 4 24C4 31.1888 5.03795 36.3923 8.36852 39.6994C11.6962 43.0035 16.897 44 24.0009 44C31.1048 44 36.3053 43.0035 39.6325 39.6993C42.9626 36.3922 44 31.1886 44 24C44 16.823 43.0057 11.6151 39.6954 8.30475C36.3852 4.99434 31.1775 4 24.0009 4ZM31.2769 19.172C31.9145 19.8096 31.9145 20.8433 31.2769 21.4809L23.1136 29.6442C22.4761 30.2817 21.4423 30.2817 20.8047 29.6442L16.7231 25.5625C16.0855 24.9249 16.0855 23.8912 16.7231 23.2536C17.3607 22.616 18.3944 22.616 19.032 23.2536L21.9592 26.1808L28.968 19.172C29.6056 18.5344 30.6393 18.5344 31.2769 19.172Z" fill="white"/>
</svg>
