<svg width="48" height="48" viewBox="0 0 48 48" fill="none" xmlns="http://www.w3.org/2000/svg">
<path fill-rule="evenodd" clip-rule="evenodd" d="M24.0009 4C16.8243 4 11.6163 4.99435 8.30562 8.30465C4.99485 11.615 4 16.8228 4 24C4 31.1888 5.03795 36.3923 8.36852 39.6994C11.6962 43.0035 16.897 44 24.0009 44C31.1048 44 36.3053 43.0035 39.6325 39.6993C42.9626 36.3922 44 31.1886 44 24C44 16.823 43.0057 11.6151 39.6954 8.30475C36.3852 4.99434 31.1775 4 24.0009 4ZM20.8047 31.2769C21.4423 31.9145 22.4761 31.9145 23.1136 31.2769L29.2361 25.1545C29.5423 24.8483 29.7143 24.433 29.7143 24C29.7143 23.567 29.5423 23.1517 29.2361 22.8455L23.1136 16.7231C22.4761 16.0855 21.4423 16.0855 20.8047 16.7231C20.1671 17.3607 20.1671 18.3944 20.8047 19.032L25.7727 24L20.8047 28.968C20.1671 29.6056 20.1671 30.6393 20.8047 31.2769Z" fill="white"/>
</svg>
