<svg width="48" height="48" viewBox="0 0 48 48" fill="none" xmlns="http://www.w3.org/2000/svg">
<path fill-rule="evenodd" clip-rule="evenodd" d="M23.9991 4C31.1757 4 36.3837 4.99435 39.6944 8.30465C43.0052 11.615 44 16.8228 44 24C44 31.1888 42.9621 36.3923 39.6315 39.6994C36.3038 43.0035 31.103 44 23.9991 44C16.8952 44 11.6947 43.0035 8.36748 39.6993C5.03743 36.3922 4 31.1886 4 24C4 16.823 4.99433 11.6151 8.30458 8.30475C11.6148 4.99434 16.8225 4 23.9991 4ZM27.1953 31.2769C26.5577 31.9145 25.5239 31.9145 24.8864 31.2769L18.7639 25.1545C18.4577 24.8483 18.2857 24.433 18.2857 24C18.2857 23.567 18.4577 23.1517 18.7639 22.8455L24.8864 16.7231C25.5239 16.0855 26.5577 16.0855 27.1953 16.7231C27.8329 17.3607 27.8329 18.3944 27.1953 19.032L22.2273 24L27.1953 28.968C27.8329 29.6056 27.8329 30.6393 27.1953 31.2769Z" fill="white"/>
</svg>
