<svg width="48" height="48" viewBox="0 0 48 48" fill="none" xmlns="http://www.w3.org/2000/svg">
<path fill-rule="evenodd" clip-rule="evenodd" d="M24.0009 4C16.8243 4 11.6163 4.99435 8.30562 8.30465C4.99485 11.615 4 16.8228 4 24C4 31.1888 5.03795 36.3923 8.36852 39.6994C11.6962 43.0035 16.897 44 24.0009 44C31.1048 44 36.3053 43.0035 39.6325 39.6993C42.9626 36.3922 44 31.1886 44 24C44 16.823 43.0057 11.6151 39.6954 8.30475C36.3852 4.99434 31.1775 4 24.0009 4ZM30.2565 17.7435C30.8941 18.3811 30.8941 19.4148 30.2565 20.0524L26.3089 24L30.2565 27.9476C30.8941 28.5852 30.8941 29.6189 30.2565 30.2565C29.6189 30.8941 28.5852 30.8941 27.9476 30.2565L24 26.3089L20.0524 30.2565C19.4148 30.8941 18.3811 30.8941 17.7435 30.2565C17.1059 29.6189 17.1059 28.5852 17.7435 27.9476L21.6911 24L17.7435 20.0524C17.1059 19.4148 17.1059 18.3811 17.7435 17.7435C18.3811 17.1059 19.4148 17.1059 20.0524 17.7435L24 21.6911L27.9476 17.7435C28.5852 17.1059 29.6189 17.1059 30.2565 17.7435Z" fill="white"/>
</svg>
