<svg width="48" height="48" viewBox="0 0 48 48" fill="none" xmlns="http://www.w3.org/2000/svg">
<path fill-rule="evenodd" clip-rule="evenodd" d="M24.0009 6.9126C20.3441 6.9126 17.2661 7.033 14.7236 7.44873C12.1786 7.86488 10.0406 8.59606 8.3583 9.91257C4.92833 12.5968 4 17.2086 4 24C4 30.7913 4.92833 35.4032 8.3583 38.0874C10.0406 39.4039 12.1786 40.1351 14.7236 40.5512C17.2661 40.967 20.3441 41.0874 24.0009 41.0874C27.6577 41.0874 30.7356 40.967 33.2779 40.5512C35.8228 40.1351 37.9606 39.4039 39.6427 38.0873C43.0722 35.403 44 30.7912 44 24C44 17.2088 43.0722 12.5969 39.6427 9.91265C37.9606 8.59608 35.8228 7.86489 33.2779 7.44874C30.7356 7.033 27.6577 6.9126 24.0009 6.9126ZM12.7379 18.1747C12.7379 17.3168 13.4333 16.6213 14.2913 16.6213H33.7087C34.5667 16.6213 35.2621 17.3168 35.2621 18.1747C35.2621 19.0327 34.5667 19.7281 33.7087 19.7281H14.2913C13.4333 19.7281 12.7379 19.0327 12.7379 18.1747Z" fill="white"/>
</svg>
