<svg width="48" height="48" viewBox="0 0 48 48" fill="none" xmlns="http://www.w3.org/2000/svg">
<path fill-rule="evenodd" clip-rule="evenodd" d="M24 4C7.53 4 4 7.53 4 24C4 40.47 7.53 44 24 44C40.47 44 44 40.47 44 24C44 7.53 40.47 4 24 4ZM22.3158 22.3149V22.3163H17.6842C16.754 22.3163 16 23.0703 16 24.0005C16 24.9307 16.754 25.6847 17.6842 25.6847H20.293V25.6831H27.2333V25.6847H30.3158C31.246 25.6847 32 24.9307 32 24.0005C32 23.0703 31.246 22.3163 30.3158 22.3163H25.6842V22.3149H22.3158Z" fill="white"/>
</svg>
