<svg width="48" height="48" viewBox="0 0 48 48" fill="none" xmlns="http://www.w3.org/2000/svg">
<path fill-rule="evenodd" clip-rule="evenodd" d="M24 4C7.53 4 4 7.53 4 24C4 40.47 7.53 44 24 44C40.47 44 44 40.47 44 24C44 7.53 40.47 4 24 4ZM36 28.2763C36 29.1387 35.3001 29.8386 34.4376 29.8386C33.5752 29.8386 32.8753 29.1387 32.8753 28.2763V25.9806H30.1047V28.2763C30.1047 29.1387 29.4047 29.8386 28.5423 29.8386C27.6799 29.8386 26.9799 29.1387 26.9799 28.2763V25.9806H22.5803C21.9054 28.2055 19.8597 29.8386 17.4183 29.8386C14.431 29.8386 12 27.4076 12 24.4183C12 21.431 14.431 19 17.4183 19C19.8597 19 21.9054 20.6332 22.5803 22.8559H34.4376C35.3001 22.8559 36 23.5559 36 24.4183V28.2763ZM17.4163 22.1247C16.1518 22.1247 15.1207 23.1538 15.1207 24.4204C15.1207 25.6848 16.1518 26.7139 17.4163 26.7139C18.6808 26.7139 19.7119 25.6848 19.7119 24.4204C19.7119 23.1538 18.6808 22.1247 17.4163 22.1247Z" fill="white"/>
</svg>
