<svg width="48" height="48" viewBox="0 0 48 48" fill="none" xmlns="http://www.w3.org/2000/svg">
<path fill-rule="evenodd" clip-rule="evenodd" d="M24 4C7.53 4 4 7.53 4 24C4 40.47 7.53 44 24 44C40.47 44 44 40.47 44 24C44 7.53 40.47 4 24 4ZM24 16C24.9302 16 25.6842 16.754 25.6842 17.6842V22.3158H30.3158C31.246 22.3158 32 23.0698 32 24C32 24.9302 31.246 25.6842 30.3158 25.6842H25.6842V30.3158C25.6842 31.246 24.9302 32 24 32C23.0698 32 22.3158 31.246 22.3158 30.3158V25.6842H17.6842C16.754 25.6842 16 24.9302 16 24C16 23.0698 16.754 22.3158 17.6842 22.3158H22.3158V17.6842C22.3158 16.754 23.0698 16 24 16Z" fill="white"/>
</svg>
