<svg width="48" height="48" viewBox="0 0 48 48" fill="none" xmlns="http://www.w3.org/2000/svg">
<path fill-rule="evenodd" clip-rule="evenodd" d="M24.0008 44C23.4819 44 22.8575 43.8353 22.2794 43.6374C21.6509 43.4222 20.9066 43.1071 20.0923 42.6918C18.463 41.8609 16.4978 40.601 14.5626 38.8613C10.683 35.3736 6.88453 29.9152 6.24575 22.1254C5.68695 15.3112 6.43678 10.5206 9.58271 7.5685C12.6566 4.68399 17.5885 4 24.0008 4C30.4131 4 35.345 4.68399 38.4189 7.5685C41.5648 10.5206 42.3147 15.3112 41.7559 22.1254C41.1171 29.9152 37.3187 35.3736 33.439 38.8613C31.5038 40.601 29.5387 41.8609 27.9094 42.6918C27.095 43.1071 26.3507 43.4222 25.7223 43.6374C25.1442 43.8353 24.5198 44 24.0008 44ZM30.9244 16.4937C31.5311 17.1004 31.5311 18.0839 30.9244 18.6906L23.1574 26.4575C22.5508 27.0642 21.5672 27.0642 20.9606 26.4575L17.0771 22.5741C16.4705 21.9674 16.4705 20.9839 17.0771 20.3772C17.6837 19.7706 18.6673 19.7706 19.2739 20.3772L22.059 23.1623L28.7276 16.4937C29.3342 15.8871 30.3178 15.8871 30.9244 16.4937Z" fill="white"/>
</svg>
