<svg width="48" height="48" viewBox="0 0 48 48" fill="none" xmlns="http://www.w3.org/2000/svg">
<path fill-rule="evenodd" clip-rule="evenodd" d="M24 4C7.53 4 4 7.53 4 24C4 40.47 7.53 44 24 44C40.47 44 44 40.47 44 24C44 7.53 40.47 4 24 4ZM20.5224 31.3715L20.8354 26.6833L20.8351 26.6831L29.3635 18.9869C29.7378 18.6547 29.2818 18.4927 28.7849 18.794L18.2597 25.4342L13.7134 24.0153C12.7316 23.7146 12.7245 23.04 13.9338 22.5549L31.6497 15.7238C32.4589 15.3564 33.2398 15.9181 32.931 17.1565L29.9139 31.3739C29.7032 32.3842 29.0928 32.6258 28.247 32.1591L23.6511 28.7636L21.442 30.9117C21.4351 30.9185 21.4281 30.9252 21.4212 30.9319C21.1742 31.1725 20.9698 31.3715 20.5224 31.3715Z" fill="white"/>
</svg>
