<svg width="48" height="48" viewBox="0 0 48 48" fill="none" xmlns="http://www.w3.org/2000/svg">
<path fill-rule="evenodd" clip-rule="evenodd" d="M24 4C7.53 4 4 7.53 4 24C4 40.47 7.53 44 24 44C40.47 44 44 40.47 44 24C44 7.53 40.47 4 24 4ZM24.7545 20.8474L24.7111 20.1325C24.5811 18.2797 25.7227 16.5873 27.5291 15.9308C28.1939 15.6974 29.321 15.6682 30.058 15.8724C30.3471 15.96 30.8962 16.2517 31.2864 16.5144L31.9945 16.9958L32.7749 16.7478C33.2084 16.6165 33.7864 16.3976 34.0466 16.2517C34.2922 16.1204 34.509 16.0475 34.509 16.0913C34.509 16.3393 33.9743 17.1855 33.5263 17.6523C32.9194 18.3088 33.0928 18.3672 34.3211 17.9295C35.0581 17.6815 35.0726 17.6815 34.9281 17.9587C34.8414 18.1046 34.3934 18.6152 33.9165 19.0821C33.1072 19.8845 33.0639 19.972 33.0639 20.6431C33.0639 21.679 32.5725 23.8382 32.0812 25.0199C31.1708 27.2375 29.2199 29.528 27.269 30.6806C24.5233 32.3 20.8671 32.7085 17.7891 31.7602C16.763 31.4392 15 30.6222 15 30.4763C15 30.4325 15.5347 30.3742 16.185 30.3596C17.5434 30.3304 18.9018 29.9511 20.0579 29.28L20.8382 28.8131L19.9423 28.5068C18.6706 28.0691 17.5289 27.0624 17.2399 26.1141C17.1532 25.8077 17.1821 25.7932 17.9914 25.7932L18.8295 25.7786L18.1214 25.443C17.2833 25.0199 16.5174 24.305 16.1416 23.5756C15.8671 23.0504 15.5202 21.7227 15.6214 21.6206C15.6503 21.5768 15.9538 21.6644 16.3006 21.7811C17.2977 22.1458 17.4278 22.0583 16.8497 21.4455C15.7659 20.3368 15.4335 18.6882 15.9538 17.1271L16.1994 16.4268L17.1532 17.3751C19.1041 19.2863 21.4018 20.4243 24.0319 20.7598L24.7545 20.8474Z" fill="white"/>
</svg>
