<svg width="48" height="48" viewBox="0 0 48 48" fill="none" xmlns="http://www.w3.org/2000/svg">
<path fill-rule="evenodd" clip-rule="evenodd" d="M24 4C7.53 4 4 7.53 4 24C4 40.47 7.53 44 24 44C40.47 44 44 40.47 44 24C44 7.53 40.47 4 24 4ZM15 28V33C15 34.6569 16.3431 36 18 36H30C31.6569 36 33 34.6569 33 33V28C32.9434 26.9072 32.2845 25.9363 31.29 25.48C26.6085 23.5993 21.3815 23.5993 16.7 25.48C15.7093 25.9391 15.0548 26.9095 15 28ZM19 17C19 14.2386 21.2386 12 24 12C26.7614 12 29 14.2386 29 17C29 19.7614 26.7614 22 24 22C21.2386 22 19 19.7614 19 17Z" fill="white"/>
</svg>
