<svg width="20" height="20" viewBox="0 0 20 20" fill="none" xmlns="http://www.w3.org/2000/svg">
<path fill-rule="evenodd" clip-rule="evenodd" d="M10.0005 0C6.41217 0 3.80817 0.497176 2.15281 2.15233C0.497423 3.8075 0 6.41142 0 10C0 13.5944 0.518973 16.1962 2.18426 17.8497C3.8481 19.5018 6.44851 20 10.0005 20C13.5524 20 16.1526 19.5018 17.8163 17.8496C19.4813 16.1961 20 13.5943 20 10C20 6.41149 19.5028 3.80757 17.8477 2.15237C16.1926 0.49717 13.5888 0 10.0005 0ZM13.6385 7.58599C13.9573 7.90478 13.9573 8.42165 13.6385 8.74045L9.55682 12.8221C9.23803 13.1409 8.72116 13.1409 8.40236 12.8221L6.36155 10.7813C6.04275 10.4625 6.04275 9.9456 6.36155 9.6268C6.68034 9.30801 7.19721 9.30801 7.51601 9.6268L8.97959 11.0904L12.484 7.58599C12.8028 7.26719 13.3197 7.26719 13.6385 7.58599Z" fill="#1D9E51"/>
</svg>
