<svg width="24" height="24" viewBox="0 0 24 24" fill="none" xmlns="http://www.w3.org/2000/svg">
<g opacity="0.8">
<path fill-rule="evenodd" clip-rule="evenodd" d="M10.9512 4.54008C7.41054 4.5399 4.54008 7.41021 4.54008 10.9509C4.54008 14.4916 7.41054 17.3619 10.9512 17.3617C14.4917 17.3615 17.3617 14.4914 17.3617 10.9509C17.3617 7.41038 14.4917 4.54026 10.9512 4.54008ZM2 10.9509C2 6.00731 6.00777 1.99975 10.9513 2C15.8946 2.00025 19.9018 6.00758 19.9018 10.9509C19.9018 15.8942 15.8946 19.9015 10.9513 19.9018C6.00777 19.902 2 15.8944 2 10.9509Z" fill="white"/>
<path fill-rule="evenodd" clip-rule="evenodd" d="M21.1019 21.1022C20.606 21.5981 19.8018 21.5981 19.3058 21.1022L15.6851 17.4814C15.1891 16.9854 15.1891 16.1812 15.6851 15.6853C16.181 15.1893 16.9852 15.1893 17.4812 15.6853L21.1019 19.306C21.5979 19.802 21.5979 20.6062 21.1019 21.1022Z" fill="white"/>
</g>
</svg>
