<svg width="48" height="48" viewBox="0 0 48 48" fill="none" xmlns="http://www.w3.org/2000/svg">
<path fill-rule="evenodd" clip-rule="evenodd" d="M10 16C10 14.8954 10.8954 14 12 14H32C33.1046 14 34 14.8954 34 16C34 17.1046 33.1046 18 32 18H12C10.8954 18 10 17.1046 10 16ZM14 24C14 22.8954 14.8954 22 16 22H36C37.1046 22 38 22.8954 38 24C38 25.1046 37.1046 26 36 26H16C14.8954 26 14 25.1046 14 24ZM12 30C10.8954 30 10 30.8954 10 32C10 33.1046 10.8954 34 12 34H32C33.1046 34 34 33.1046 34 32C34 30.8954 33.1046 30 32 30H12Z" fill="white"/>
</svg>
