<svg width="49" height="48" viewBox="0 0 49 48" fill="none" xmlns="http://www.w3.org/2000/svg">
<g clip-path="url(#clip0)">
<path d="M24.2999 0.200882C24.67 0.0551214 25.0849 0.0326967 25.4774 0.0214844C30.4344 0.189669 35.3242 1.99485 39.2382 5.04461C37.8363 4.1252 36.2438 3.51973 34.6401 3.04881C32.0494 2.28638 29.369 1.95001 26.7111 1.50151C26.027 1.36696 25.3204 1.24363 24.67 0.996957C24.4344 0.884834 24.1653 0.783923 24.0419 0.559676C23.9746 0.380279 24.1541 0.256943 24.2999 0.200882Z" fill="#5625BF"/>
<path d="M13.7132 2.56864C15.059 1.8959 16.4608 1.33528 17.9076 0.931641C17.1225 1.23437 16.2926 1.63802 15.8665 2.40046C15.6085 2.84895 15.6982 3.45442 16.0683 3.82442C16.6964 4.46353 17.616 4.67656 18.4683 4.84475C20.7001 5.21475 22.9767 5.0802 25.2309 5.0802C29.2347 5.01293 33.3169 5.09142 37.1973 6.21265C38.3973 6.56023 39.5637 7.00873 40.6627 7.58055C42.0197 8.29814 43.3094 9.20634 44.2739 10.4173C44.6104 10.8658 44.902 11.3479 45.1823 11.83C46.158 13.4895 46.9431 15.2498 47.4814 17.0998C47.0552 15.9786 46.3487 14.9695 45.4964 14.1173C43.8029 12.4243 41.6048 11.3255 39.3281 10.6527C37.0179 9.97999 34.6066 9.74453 32.2179 9.74453C29.0665 9.75575 25.9487 10.2042 22.8422 10.6752C20.5094 11.0227 18.1767 11.3927 15.8104 11.4376C14.5319 11.4488 13.2309 11.3703 11.9973 10.9779C11.1786 10.72 10.3823 10.3052 9.79916 9.65484C9.18234 8.9821 8.89075 8.01784 9.04776 7.12085C9.24963 5.90992 10.0571 4.87838 11.0216 4.14958C11.8739 3.55533 12.7936 3.03956 13.7132 2.56864Z" fill="#7331FF"/>
<path d="M2.35971 14.7555C3.16719 12.8382 4.19897 11.0218 5.47747 9.38477C5.10738 9.94538 4.79336 10.5621 4.59149 11.2012C4.16532 12.5691 4.25504 14.1164 4.91672 15.4058C5.54476 16.6728 6.68868 17.6371 7.95597 18.2201C9.60457 18.9825 11.455 19.1956 13.2494 19.1731C15.5149 19.1283 17.7578 18.7134 19.956 18.2313C22.098 17.7604 24.2289 17.1998 26.3821 16.7289C29.0401 16.1346 31.7205 15.6525 34.4457 15.574C37.1934 15.4955 40.0083 15.8207 42.5429 16.9307C44.1242 17.6258 45.6046 18.635 46.7036 19.9804C47.7354 21.225 48.4195 22.7723 48.4868 24.3981C48.4644 26.8648 48.027 29.3427 47.2307 31.6637C47.6906 30.0379 47.4102 28.2439 46.5242 26.8088C45.9522 25.8557 45.1335 25.0484 44.2139 24.4205C42.9803 23.5908 41.5672 23.075 40.1205 22.7947C38.8195 22.5481 37.4962 22.4696 36.184 22.5144C33.4476 22.6041 30.756 23.1872 28.098 23.8487C25.2494 24.5775 22.4233 25.4296 19.5522 26.0575C17.298 26.5509 14.999 26.8985 12.6887 26.8872C10.3672 26.8648 7.98962 26.4163 5.9485 25.2615C4.25504 24.3084 2.83074 22.8172 2.10177 21.0008C1.47373 19.4535 1.36158 17.6931 1.84383 16.101C1.98962 15.6525 2.16906 15.204 2.35971 14.7555Z" fill="#8F5AFF"/>
<path d="M0.500267 23.4785H0.511482C0.533912 25.6761 1.4984 27.7728 2.95634 29.3762C4.67223 31.2823 7.02737 32.5269 9.49466 33.1772C12.433 33.9508 15.5171 33.9172 18.5227 33.5472C21.2928 33.1996 24.018 32.5493 26.7433 31.8878C28.9077 31.372 31.0722 30.845 33.2704 30.5086C34.6274 30.3068 36.0068 30.1835 37.3862 30.2283C38.8442 30.2844 40.3358 30.5199 41.6591 31.159C42.8704 31.7308 43.9358 32.7175 44.4068 33.9957C44.9339 35.3748 44.6535 36.9557 43.8573 38.1779C43.218 39.0861 42.4778 39.927 41.704 40.7343C40.7507 41.6986 39.719 42.618 38.6087 43.4028C39.2704 42.8422 39.8423 42.1022 39.9657 41.2276C40.0666 40.6222 39.8872 39.9831 39.5059 39.5009C39.0909 38.9627 38.4965 38.604 37.8797 38.3685C36.6685 37.8976 35.3563 37.8191 34.0778 37.7967C31.2965 37.8415 28.5601 38.3349 25.8124 38.7273C23.1545 39.1197 20.4853 39.4561 17.7937 39.4673C14.6535 39.4897 11.4573 39.0637 8.54139 37.8191C6.92643 37.1351 5.42363 36.1933 4.15634 34.9824C3.06849 33.9396 2.16008 32.6726 1.62176 31.2599C0.814285 28.7595 0.466622 26.1134 0.500267 23.4785Z" fill="#7331FF"/>
<path d="M5.11133 38.1328C6.45712 39.7698 8.27394 40.9583 10.2029 41.8104C12.0534 42.6289 14.016 43.1447 16.0123 43.4586C19.9151 44.0865 23.8739 43.8735 27.7992 43.8735C29.0889 43.9071 30.401 43.9296 31.6571 44.2323C32.1618 44.3668 32.6889 44.535 33.059 44.9275C33.2945 45.1517 33.3842 45.5329 33.2272 45.8244C32.9693 46.3402 32.431 46.6093 31.9263 46.8223C29.5263 47.6296 26.9805 48.0108 24.4459 47.9996C24.6141 47.9772 24.8048 47.966 24.9618 47.8763C25.0403 47.809 24.9618 47.6857 24.8945 47.6633C24.5468 47.4614 24.1431 47.3829 23.7506 47.2932C22.7525 47.0802 21.7431 46.9457 20.7338 46.7775C18.6366 46.4411 16.5394 46.0487 14.5207 45.376C13.1524 44.9162 11.8067 44.3444 10.5954 43.5596C9.33937 42.6962 8.18423 41.6647 7.13002 40.5659C6.40105 39.7922 5.71694 38.9849 5.11133 38.1328Z" fill="#5625BF"/>
</g>
<defs>
<clipPath id="clip0">
<rect width="48" height="48" fill="white" transform="translate(0.5)"/>
</clipPath>
</defs>
</svg>
